<?xml version="1.0" encoding="UTF-8"?>
<!-- Generated by Pixelmator Pro 3.5.7 -->
<svg width="64" height="64" viewBox="0 0 64 64" xmlns="http://www.w3.org/2000/svg">
    <path id="Path" fill="#68607c" stroke="none" d="M 13.657681 15.611435 L 27.657721 10.511166 L 28.342321 12.390366 L 14.34228 17.490635 Z"/>
    <path id="path1" fill="#68607c" stroke="none" d="M 34.29237 13.707172 L 35.70657 12.292969 L 51.706123 28.292522 L 50.291924 29.706722 Z"/>
    <path id="path2" fill="#68607c" stroke="none" d="M 36.86277 30.663273 L 37.135036 28.682861 L 49.135384 30.332653 L 48.863117 32.313065 Z"/>
    <path id="path3" fill="#68607c" stroke="none" d="M 12.552686 20.396042 L 13.447086 18.607243 L 29.447008 26.607204 L 28.552608 28.396004 Z"/>
    <path id="path4" fill="#68607c" stroke="none" d="M 13.214214 46.72501 L 14.109861 44.935715 L 28.433159 52.105373 L 27.537512 53.894669 Z"/>
    <path id="path5" fill="#68607c" stroke="none" d="M 31 33 L 33 33 L 33 50 L 31 50 Z"/>
    <path id="path6" fill="#68607c" stroke="none" d="M 11.734123 39.451492 L 28.587076 13.464306 L 30.265076 14.552509 L 13.412124 40.539696 Z"/>
    <path id="path7" fill="#68607c" stroke="none" d="M 34.626881 50.805504 L 50.410641 34.307098 L 51.855843 35.689701 L 36.072083 52.188103 Z"/>
    <path id="path8" fill="#68607c" stroke="none" d="M 11.685829 22.781281 L 13.40523 21.759682 L 29.882105 49.491024 L 28.162704 50.512623 Z"/>
    <path id="path9" fill="#68607c" stroke="#000000" d="M 17 44 C 17 45.130001 16.74 46.189999 16.26 47.130001 C 15.12 49.43 12.74 51 10 51 C 6.13 51 3 47.869999 3 44 C 3 40.130001 6.13 37 10 37 C 11.41 37 12.71 37.41 13.8 38.119999 C 15.73 39.369999 17 41.529999 17 44 Z"/>
    <path id="path10" fill="#68607c" stroke="#000000" d="M 37.310001 49.450001 C 38.369999 50.669998 39 52.259998 39 54 C 39 57.869999 35.869999 61 32 61 C 28.129999 61 25 57.869999 25 54 C 25 53.189999 25.139999 52.419998 25.389999 51.700001 C 25.870001 50.290001 26.790001 49.099998 27.99 48.259998 C 29.120001 47.459999 30.5 47 32 47 C 34.130001 47 36.040001 47.950001 37.310001 49.450001 Z"/>
    <path id="path11" fill="#685f7c" stroke="#000000" d="M 54 25 C 57.869999 25 61 28.129997 61 32 C 61 35.869999 57.869999 39 54 39 C 52.119999 39 50.419998 38.27 49.169998 37.049999 C 47.830002 35.790001 47 33.990002 47 32 C 47 31.68 47.02 31.370003 47.07 31.059998 C 47.27 29.5 47.990002 28.110001 49.049999 27.049999 C 50.32 25.779999 52.060001 25 54 25 Z"/>
    <path id="path12" fill="#68607c" stroke="#000000" d="M 38.93 29.940002 C 38.48 33.360001 35.549999 36 32 36 C 28.129999 36 25 32.869999 25 29 C 25 27.870003 25.26 26.809998 25.74 25.870003 C 26.879999 23.57 29.26 22 32 22 C 35.869999 22 39 25.129997 39 29 C 39 29.32 38.98 29.629997 38.93 29.940002 Z"/>
    <path id="path13" fill="#68607c" stroke="#000000" d="M 32 3 C 35.869999 3 39 6.130001 39 10 C 39 11.939999 38.220001 13.68 36.950001 14.950001 C 35.68 16.220001 33.939999 17 32 17 C 30.59 17 29.290001 16.59 28.200001 15.880001 C 26.93 15.060001 25.940001 13.84 25.42 12.389999 C 25.15 11.650002 25 10.84 25 10 C 25 6.130001 28.129999 3 32 3 Z"/>
    <path id="path14" fill="#68607c" stroke="#000000" d="M 16.58 15.610001 C 16.85 16.349998 17 17.16 17 18 C 17 19.129997 16.74 20.190002 16.26 21.129997 C 15.66 22.330002 14.73 23.330002 13.58 24.010002 C 12.54 24.639999 11.31 25 10 25 C 6.13 25 3 21.870003 3 18 C 3 14.130001 6.13 11 10 11 C 13.03 11 15.6 12.919998 16.58 15.610001 Z"/>
</svg>
