<svg xmlns="http://www.w3.org/2000/svg" viewBox="0 0 563.2 254.5"><style>.st0{fill:#425066}.st1{fill:#ff6f00}</style><path class="st0" d="M113.5 72.8H93.8v54.4H82.9V72.8H63.4v-8.9h50.2v8.9z"/><path class="st0" d="M126.6 128c-6.7 0-12.1-2.1-16.3-6.3-4.2-4.2-6.2-9.8-6.2-16.8v-1.3c0-4.7.9-8.9 2.7-12.6 1.8-3.7 4.4-6.6 7.6-8.6 3.3-2.1 6.9-3.1 10.9-3.1 6.4 0 11.3 2 14.8 6.1s5.2 9.9 5.2 17.3v4.3h-30.7c.3 3.9 1.6 7 3.9 9.2 2.3 2.3 5.1 3.4 8.6 3.4 4.8 0 8.8-2 11.8-5.9l5.7 5.4c-1.9 2.8-4.4 5-7.5 6.5-3 1.7-6.6 2.4-10.5 2.4zm-1.2-40.2c-2.9 0-5.2 1-7 3-1.8 2-2.9 4.9-3.4 8.5h20.1v-.8c-.2-3.5-1.2-6.2-2.8-8-1.7-1.8-4-2.7-6.9-2.7zM163.5 80.2l.3 5.4c3.5-4.2 8-6.3 13.7-6.3 9.8 0 14.8 5.6 14.9 16.8v31.1h-10.6V96.7c0-3-.6-5.2-1.9-6.6-1.3-1.4-3.4-2.2-6.3-2.2-4.3 0-7.4 1.9-9.5 5.8v33.5h-10.6v-47h10zM226.7 114.4c0-1.9-.8-3.3-2.3-4.3-1.5-1-4.1-1.9-7.7-2.6-3.6-.8-6.6-1.7-9-2.9-5.3-2.5-7.9-6.2-7.9-11.1 0-4.1 1.7-7.4 5.1-10.2 3.4-2.7 7.8-4.1 13-4.1 5.6 0 10.2 1.4 13.6 4.2 3.5 2.8 5.2 6.4 5.2 10.8h-10.6c0-2-.8-3.7-2.3-5.1-1.5-1.3-3.5-2-6-2-2.3 0-4.2.5-5.7 1.6s-2.2 2.5-2.2 4.3c0 1.6.7 2.9 2 3.8 1.4.9 4.1 1.8 8.3 2.7 4.1.9 7.4 2 9.8 3.3 2.4 1.3 4.1 2.8 5.3 4.5 1.1 1.8 1.7 3.9 1.7 6.4 0 4.2-1.8 7.7-5.3 10.3-3.5 2.6-8.1 3.9-13.8 3.9-3.9 0-7.3-.7-10.3-2.1-3-1.4-5.4-3.3-7-5.7-1.7-2.4-2.5-5.1-2.5-7.9h10.3c.1 2.5 1.1 4.4 2.8 5.8 1.7 1.3 4 2 6.9 2 2.8 0 4.9-.5 6.3-1.6 1.5-.9 2.3-2.3 2.3-4zM242.5 103.2c0-4.6.9-8.8 2.7-12.4s4.4-6.5 7.7-8.5 7.1-3 11.4-3c6.3 0 11.5 2 15.4 6.1 4 4.1 6.1 9.5 6.4 16.2v2.5c0 4.6-.9 8.8-2.7 12.4-1.8 3.6-4.3 6.5-7.6 8.5s-7.1 3-11.5 3c-6.6 0-11.9-2.2-15.9-6.6-4-4.4-6-10.3-6-17.7v-.5zm10.5 1c0 4.8 1 8.6 3 11.4 2 2.7 4.8 4.1 8.3 4.1s6.3-1.4 8.3-4.2c2-2.8 3-6.8 3-12.2 0-4.8-1-8.5-3.1-11.3s-4.8-4.2-8.3-4.2c-3.4 0-6.2 1.4-8.2 4.1-2 2.7-3 6.8-3 12.3zM317.9 89.8c-1.4-.2-2.8-.3-4.3-.3-4.8 0-8.1 1.9-9.8 5.6v32.2h-10.6v-47h10.1l.3 5.3c2.5-4.1 6.1-6.1 10.6-6.1 1.5 0 2.8.2 3.7.6v9.7zM362.1 100.4h-25.5v26.8h-11V63.9h40.2v8.9h-29.2v18.8h25.5v8.8zM382.9 127.2h-10.6V63.8h10.6v63.4zM390.7 103.2c0-4.6.9-8.8 2.7-12.4s4.4-6.5 7.7-8.5 7.1-3 11.4-3c6.3 0 11.5 2 15.4 6.1s6.1 9.5 6.4 16.2v2.5c0 4.6-.9 8.8-2.7 12.4s-4.3 6.5-7.6 8.5-7.1 3-11.5 3c-6.6 0-11.9-2.2-15.9-6.6-4-4.4-6-10.3-6-17.7v-.5zm10.5 1c0 4.8 1 8.6 3 11.4 2 2.7 4.8 4.1 8.3 4.1 3.6 0 6.3-1.4 8.3-4.2 2-2.8 3-6.8 3-12.2 0-4.8-1-8.5-3.1-11.3s-4.8-4.2-8.3-4.2c-3.4 0-6.2 1.4-8.2 4.1-2 2.7-3 6.8-3 12.3zM482 112.6l7.5-32.5h10.3l-12.8 47h-8.7l-10.1-32.3-9.9 32.3h-8.7l-12.9-47H447l7.6 32.1 9.6-32.1h8l9.8 32.5z"/><g><path class="st1" d="M429.2 191.1h-5.8v-20.3h-22.2v20.3h-5.8v-44h5.8V166h22.2v-18.9h5.8v44zM458.2 187.9c-2.2 2.6-5.4 3.8-9.6 3.8-3.5 0-6.1-1-8-3-1.8-2-2.7-5-2.8-9v-21.3h5.6v21.1c0 5 2 7.4 6 7.4 4.3 0 7.1-1.6 8.5-4.8v-23.8h5.6V191h-5.3v-3.1zM500 175.1c0 5-1.1 9-3.4 12s-5.4 4.5-9.2 4.5c-4.1 0-7.3-1.5-9.6-4.4l-.3 3.8h-5.1v-46.4h5.6V162c2.3-2.8 5.4-4.2 9.3-4.2 4 0 7.1 1.5 9.4 4.5 2.3 3 3.4 7.1 3.4 12.3v.5zm-5.6-.6c0-3.8-.7-6.7-2.2-8.8-1.5-2.1-3.6-3.1-6.3-3.1-3.7 0-6.3 1.7-7.9 5.1v14.1c1.7 3.4 4.4 5.1 8 5.1 2.7 0 4.8-1 6.3-3.1 1.4-2 2.1-5.1 2.1-9.3z"/></g></svg>
